<svg xmlns="http://www.w3.org/2000/svg" width="760" height="490" style="background:#fff;font-family:Arial,sans-serif;"><defs><marker id="arr" markerWidth="10" markerHeight="7" refX="9" refY="3.5" orient="auto"><polygon points="0 0, 10 3.5, 0 7" fill="#4a5568"/></marker></defs><text x="380" y="25" text-anchor="middle" font-size="15" font-weight="bold" fill="#1a202c">PRISMA 2020 Flow Diagram</text><rect x="20" y="45" width="50" height="100" rx="4" fill="#4a90d9"/><text x="45" y="95" font-size="11" font-family="Arial" fill="white" text-anchor="middle" dominant-baseline="middle" transform="rotate(-90, 45, 95)">Identification</text><rect x="80" y="45" width="280" height="60" rx="4" fill="#ffffff" stroke="#2c5282" stroke-width="1.5"/><text x="90" y="67" font-size="12" font-family="Arial" fill="#1a202c">Records identified (n = 782)</text><text x="90" y="83" font-size="12" font-family="Arial" fill="#1a202c">IEEE: 1   Crossref: 781</text><text x="90" y="99" font-size="12" font-family="Arial" fill="#1a202c">Semantic Scholar: 0</text><rect x="430" y="45" width="220" height="60" rx="4" fill="#fff5f5" stroke="#c53030" stroke-width="1.5"/><text x="440" y="67" font-size="12" font-family="Arial" fill="#1a202c">Duplicates removed (n = 360)</text><line x1="360" y1="75" x2="430" y2="75" stroke="#4a5568" stroke-width="1.5" marker-end="url(#arr)"/><line x1="220" y1="105" x2="220" y2="125" stroke="#4a5568" stroke-width="1.5" marker-end="url(#arr)"/><rect x="20" y="135" width="50" height="100" rx="4" fill="#4a90d9"/><text x="45" y="185" font-size="11" font-family="Arial" fill="white" text-anchor="middle" dominant-baseline="middle" transform="rotate(-90, 45, 185)">Screening</text><rect x="80" y="135" width="280" height="60" rx="4" fill="#ffffff" stroke="#2c5282" stroke-width="1.5"/><text x="90" y="157" font-size="12" font-family="Arial" fill="#1a202c">Records screened (n = 422)</text><rect x="430" y="135" width="220" height="60" rx="4" fill="#fff5f5" stroke="#c53030" stroke-width="1.5"/><text x="440" y="157" font-size="12" font-family="Arial" fill="#1a202c">Records excluded (n = 148)</text><line x1="360" y1="165" x2="430" y2="165" stroke="#4a5568" stroke-width="1.5" marker-end="url(#arr)"/><line x1="220" y1="195" x2="220" y2="215" stroke="#4a5568" stroke-width="1.5" marker-end="url(#arr)"/><rect x="80" y="225" width="280" height="60" rx="4" fill="#ffffff" stroke="#2c5282" stroke-width="1.5"/><text x="90" y="247" font-size="12" font-family="Arial" fill="#1a202c">Reports sought for retrieval (n = 40)</text><rect x="430" y="225" width="220" height="60" rx="4" fill="#fff5f5" stroke="#c53030" stroke-width="1.5"/><text x="440" y="247" font-size="12" font-family="Arial" fill="#1a202c">Not retrieved (n = 0)</text><line x1="360" y1="255" x2="430" y2="255" stroke="#4a5568" stroke-width="1.5" marker-end="url(#arr)"/><line x1="220" y1="285" x2="220" y2="305" stroke="#4a5568" stroke-width="1.5" marker-end="url(#arr)"/><rect x="20" y="315" width="50" height="100" rx="4" fill="#4a90d9"/><text x="45" y="365" font-size="11" font-family="Arial" fill="white" text-anchor="middle" dominant-baseline="middle" transform="rotate(-90, 45, 365)">Eligibility</text><rect x="80" y="315" width="280" height="60" rx="4" fill="#ffffff" stroke="#2c5282" stroke-width="1.5"/><text x="90" y="337" font-size="12" font-family="Arial" fill="#1a202c">Reports assessed for eligibility (n = 40)</text><rect x="430" y="315" width="220" height="60" rx="4" fill="#fff5f5" stroke="#c53030" stroke-width="1.5"/><text x="440" y="337" font-size="12" font-family="Arial" fill="#1a202c">Reports excluded (n = 6)</text><line x1="360" y1="345" x2="430" y2="345" stroke="#4a5568" stroke-width="1.5" marker-end="url(#arr)"/><line x1="220" y1="375" x2="220" y2="395" stroke="#4a5568" stroke-width="1.5" marker-end="url(#arr)"/><rect x="20" y="405" width="50" height="70" rx="4" fill="#4a90d9"/><text x="45" y="440" font-size="11" font-family="Arial" fill="white" text-anchor="middle" dominant-baseline="middle" transform="rotate(-90, 45, 440)">Included</text><rect x="80" y="405" width="280" height="55" rx="4" fill="#ffffff" stroke="#2c5282" stroke-width="1.5"/><text x="90" y="427" font-size="12" font-family="Arial" fill="#1a202c">Studies included in review (n = 34)</text></svg>